<svg width="113" height="78" viewBox="0 0 113 78" fill="none" xmlns="http://www.w3.org/2000/svg">
<g clip-path="url(#clip0_2_19)">
<g clip-path="url(#clip1_2_19)">
<path d="M76.5121 37.0478L68.4978 39.0173L63.9235 31.0743L61.0963 26.1798L57.9106 20.7155L50.5004 7.91917H38.5181L8.54916 59.6852L14.5469 70.0115H19.1233V77.9545H12.2564C11.5607 77.9524 10.8776 77.7688 10.2753 77.4217C9.67287 77.0746 9.17216 76.5763 8.82297 75.9763L0.532678 61.6785C0.183075 61.0747 -0.000976562 60.3899 -0.000976562 59.6927C-0.000976563 58.9956 0.183075 58.3107 0.532678 57.707L32.805 1.97817C33.1544 1.37787 33.6555 0.879347 34.2583 0.532266C34.8611 0.185184 35.5446 0.00166667 36.2407 0L52.8126 0C53.5083 0.00204482 54.1913 0.185742 54.7937 0.532804C55.3961 0.879867 55.8968 1.37819 56.246 1.97817L67.0984 20.6982L68.5065 23.1552L71.6944 28.6108L73.1134 31.0592L76.5143 37.0478H76.5121Z" fill="url(#paint0_linear_2_19)"/>
<path d="M43.1117 57.2771L32.2681 75.9993C31.9198 76.6007 31.4195 77.1007 30.8171 77.4493C30.2147 77.7979 29.5311 77.983 28.8346 77.9861H19.1231L8.55328 59.7168L14.551 70.0431H26.5029L38.4983 49.3276L43.1117 57.2793V57.2771Z" fill="url(#paint1_linear_2_19)"/>
<path d="M76.5098 41.0026L68.2238 55.3026C67.8755 55.9038 67.3751 56.4034 66.7727 56.7516C66.1702 57.0999 65.4867 57.2846 64.7904 57.2873H55.1028L51.9171 51.8208L50.498 49.3746H62.45L68.439 39.0504L67.3003 37.0788H76.4533C76.8029 37.6718 76.992 38.3454 77.0019 39.0332C77.0118 39.7211 76.8422 40.3998 76.5098 41.0026V41.0026Z" fill="url(#paint2_linear_2_19)"/>
<path d="M98.484 7.95972H86.4864L74.5345 28.6687L69.9623 20.7236L80.8125 2.00356C81.1617 1.40358 81.6624 0.905258 82.2648 0.558195C82.8672 0.211132 83.5503 0.0274354 84.246 0.0253906H93.9097L98.484 7.95972V7.95972Z" fill="url(#paint3_linear_2_19)"/>
<path d="M112.494 20.2927L80.228 76.0151C79.8796 76.6162 79.3793 77.1159 78.7768 77.4641C78.1744 77.8123 77.4909 77.997 76.7945 77.9997H60.2248C59.5285 77.997 58.845 77.8123 58.2425 77.4641C57.6401 77.1159 57.1397 76.6162 56.7914 76.0151L47.3602 59.7304L44.5222 54.8446L41.3364 49.3802L39.9174 46.9341L36.4839 41.0017L44.4983 39.0149L49.0791 46.9579L50.4981 49.4062L51.915 51.8502L55.1029 57.3167L56.5132 59.7542L61.0919 67.6972L62.5109 70.1456H74.4628L104.438 18.3687L98.4471 8.0424H94.0096L93.8684 0.101562H100.735C101.431 0.103607 102.114 0.287304 102.716 0.634367C103.319 0.981429 103.82 1.47975 104.169 2.07973L112.455 16.3776C112.8 16.9713 112.985 17.6439 112.991 18.33C112.998 19.0161 112.827 19.6923 112.494 20.2927V20.2927Z" fill="url(#paint4_linear_2_19)"/>
<path d="M50.5132 28.6596L44.522 38.986L45.6694 40.9706H36.5077C36.1581 40.3669 35.9741 39.682 35.9741 38.9849C35.9741 38.2877 36.1581 37.6029 36.5077 36.9991L44.7937 22.7013C45.1428 22.0989 45.6445 21.5984 46.2486 21.2501C46.8527 20.9018 47.538 20.7178 48.2358 20.7166H57.9299L61.1178 26.181L62.5347 28.6271L50.5132 28.6596V28.6596Z" fill="url(#paint5_linear_2_19)"/>
</g>
</g>
<defs>
<linearGradient id="paint0_linear_2_19" x1="-2.66826" y1="56.1817" x2="64.9403" y2="17.0325" gradientUnits="userSpaceOnUse">
<stop offset="0.2" stop-color="#668CFF"/>
<stop offset="0.49" stop-color="#00AAFF"/>
<stop offset="0.8" stop-color="#00BFB5"/>
</linearGradient>
<linearGradient id="paint1_linear_2_19" x1="15.1812" y1="71.1785" x2="42.1243" y2="55.5724" gradientUnits="userSpaceOnUse">
<stop offset="0.5" stop-color="#668CFF"/>
<stop offset="1" stop-color="#00AAFF" stop-opacity="0"/>
</linearGradient>
<linearGradient id="paint2_linear_2_19" x1="53.5816" y1="54.6743" x2="78.394" y2="40.3043" gradientUnits="userSpaceOnUse">
<stop stop-color="#00AAFF" stop-opacity="0"/>
<stop offset="0.4" stop-color="#00BFB5"/>
</linearGradient>
<linearGradient id="paint3_linear_2_19" x1="69.3647" y1="19.8027" x2="96.3079" y2="4.2053" gradientUnits="userSpaceOnUse">
<stop stop-color="#00BFB5" stop-opacity="0"/>
<stop offset="0.5" stop-color="#00CC7C"/>
</linearGradient>
<linearGradient id="paint4_linear_2_19" x1="47.9969" y1="60.8354" x2="115.597" y2="21.6928" gradientUnits="userSpaceOnUse">
<stop offset="0.2" stop-color="#00AAFF"/>
<stop offset="0.51" stop-color="#00BFB5"/>
<stop offset="0.8" stop-color="#00CC7C"/>
</linearGradient>
<linearGradient id="paint5_linear_2_19" x1="34.5889" y1="37.6816" x2="59.4078" y2="23.3051" gradientUnits="userSpaceOnUse">
<stop offset="0.6" stop-color="#00AAFF"/>
<stop offset="1" stop-color="#00BFB5" stop-opacity="0"/>
</linearGradient>
<clipPath id="clip0_2_19">
<rect width="113" height="78" fill="white"/>
</clipPath>
<clipPath id="clip1_2_19">
<rect width="475.904" height="78" fill="white"/>
</clipPath>
</defs>
</svg>
